<svg width="95" height="125" viewBox="0 0 95 125" fill="none" xmlns="http://www.w3.org/2000/svg">
<path d="M6 71H88V112.065C88 118.01 81.7457 121.878 76.4268 119.223L50.5732 106.316C48.3234 105.193 45.6766 105.193 43.4268 106.316L17.5732 119.223C12.2543 121.878 6 118.01 6 112.065V71Z" fill="#303134"/>
<circle cx="47.5" cy="47.5" r="47.5" fill="url(#paint0_linear_76_62)"/>
<circle cx="47.5" cy="47.5" r="43.5" fill="url(#paint1_linear_76_62)" stroke="#0E0E0E" stroke-width="2"/>
<path d="M65.1869 44.1382L48.1872 31.1519C47.9211 30.9494 47.5545 30.9494 47.2899 31.1519L30.2902 44.1382C30.0404 44.3304 29.9384 44.6601 30.0374 44.9587L36.5313 64.4935C36.6318 64.7966 36.9141 64.9991 37.2334 64.9991H58.2465C58.5644 64.9991 58.8482 64.7951 58.9486 64.4935L65.4425 44.9587C65.5388 44.6586 65.4368 44.3304 65.1869 44.1382Z" fill="white"/>
<path d="M40.4282 50.0358L42.4647 48.68L43.8205 46.6435L45.1763 48.68L47.2128 50.0358L45.1763 51.3917L43.8205 53.4281L42.4647 51.3917L40.4282 50.0358Z" fill="#B5C32E"/>
<path d="M48.354 50.0358L50.3905 48.68L51.7463 46.6435L53.1021 48.68L55.1386 50.0358L53.1021 51.3917L51.7463 53.4281L50.3905 51.3917L48.354 50.0358Z" fill="#B5C32E"/>
<defs>
<linearGradient id="paint0_linear_76_62" x1="24.5" y1="8.5" x2="69" y2="89" gradientUnits="userSpaceOnUse">
<stop stop-color="#B5C32E"/>
<stop offset="1" stop-color="#98A418"/>
</linearGradient>
<linearGradient id="paint1_linear_76_62" x1="25.9526" y1="10.9632" x2="67.6421" y2="86.3789" gradientUnits="userSpaceOnUse">
<stop stop-color="#B5C32E"/>
<stop offset="1" stop-color="#98A418"/>
</linearGradient>
</defs>
</svg>
