<svg width="95" height="125" viewBox="0 0 95 125" fill="none" xmlns="http://www.w3.org/2000/svg">
<path d="M6 71H88V112.065C88 118.01 81.7457 121.878 76.4268 119.223L50.5732 106.316C48.3234 105.193 45.6766 105.193 43.4268 106.316L17.5732 119.223C12.2543 121.878 6 118.01 6 112.065V71Z" fill="#303134"/>
<circle cx="47.5" cy="47.5" r="47.5" fill="url(#paint0_linear_76_63)"/>
<circle cx="47.5" cy="47.5" r="43.5" fill="url(#paint1_linear_76_63)" stroke="#0E0E0E" stroke-width="2"/>
<path d="M67.6632 43.183L48.0178 28.1755C47.7103 27.9415 47.2866 27.9415 46.9809 28.1755L27.3354 43.183C27.0467 43.4051 26.9288 43.7861 27.0432 44.1311L34.5478 66.7063C34.664 67.0565 34.9902 67.2906 35.3592 67.2906H59.6427C60.01 67.2906 60.338 67.0548 60.4541 66.7063L67.9586 44.1311C68.0699 43.7843 67.952 43.4051 67.6632 43.183Z" fill="white"/>
<path d="M34.4722 49.9988L36.8256 48.432L38.3924 46.0786L39.9593 48.432L42.3127 49.9988L39.9593 51.5657L38.3924 53.9191L36.8256 51.5657L34.4722 49.9988Z" fill="#F3AB46"/>
<path d="M43.6318 49.9988L45.9853 48.432L47.5521 46.0786L49.1189 48.432L51.4723 49.9988L49.1189 51.5657L47.5521 53.9191L45.9852 51.5657L43.6318 49.9988Z" fill="#F3AB46"/>
<path d="M52.792 49.9988L55.1454 48.432L56.7122 46.0786L58.2791 48.432L60.6325 49.9988L58.2791 51.5657L56.7122 53.9191L55.1454 51.5657L52.792 49.9988Z" fill="#F3AB46"/>
<defs>
<linearGradient id="paint0_linear_76_63" x1="24.5" y1="8.5" x2="69" y2="89" gradientUnits="userSpaceOnUse">
<stop stop-color="#F3AE48"/>
<stop offset="1" stop-color="#FB8A32"/>
</linearGradient>
<linearGradient id="paint1_linear_76_63" x1="25.9526" y1="10.9632" x2="67.6421" y2="86.3789" gradientUnits="userSpaceOnUse">
<stop stop-color="#F2AE48"/>
<stop offset="1" stop-color="#FB8831"/>
</linearGradient>
</defs>
</svg>
